{
  "accessors": [
    {
      "bufferView": 2,
      "componentType": 5126,
      "count": 2465,
      "max": [
        0.21929843723773956,
        2.7372751235961914,
        1.5393210649490356
      ],
      "min": [
        -0.18363627791404724,
        -2.9521379470825195,
        -1.5024945735931396
      ],
      "type": "VEC3"
    },
    {
      "bufferView": 2,
      "byteOffset": 29580,
      "componentType": 5126,
      "count": 2465,
      "max": [
        1.0,
        1.0,
        1.0
      ],
      "min": [
        -1.0,
        -1.0,
        -1.0
      ],
      "type": "VEC3"
    },
    {
      "bufferView": 1,
      "componentType": 5126,
      "count": 2465,
      "max": [
        0.7935222387313843,
        0.9708859324455261
      ],
      "min": [
        0.034773871302604675,
        0.001307935919612646
      ],
      "type": "VEC2"
    },
    {
      "bufferView": 0,
      "componentType": 5125,
      "count": 3540,
      "type": "SCALAR"
    },
    {
      "bufferView": 2,
      "byteOffset": 59160,
      "componentType": 5126,
      "count": 24,
      "max": [
        0.32435983419418335,
        -2.6900007724761963,
        0.8974289298057556
      ],
      "min": [
        -0.2886976897716522,
        -4.196495532989502,
        -0.8684400916099548
      ],
      "type": "VEC3"
    },
    {
      "bufferView": 2,
      "byteOffset": 59448,
      "componentType": 5126,
      "count": 24,
      "max": [
        1.0,
        1.0,
        1.0
      ],
      "min": [
        -1.0,
        -1.0,
        -1.0
      ],
      "type": "VEC3"
    },
    {
      "bufferView": 1,
      "byteOffset": 19720,
      "componentType": 5126,
      "count": 24,
      "max": [
        1.640687108039856,
        3.642772912979126
      ],
      "min": [
        -0.05800977349281311,
        1.9633785486221313
      ],
      "type": "VEC2"
    },
    {
      "bufferView": 0,
      "byteOffset": 14160,
      "componentType": 5125,
      "count": 36,
      "type": "SCALAR"
    },
    {
      "bufferView": 2,
      "byteOffset": 59736,
      "componentType": 5126,
      "count": 2732,
      "max": [
        14.503731727600098,
        3.90110445022583,
        14.996259689331055
      ],
      "min": [
        -14.335639953613281,
        -2.023984909057617,
        -26.764347076416016
      ],
      "type": "VEC3"
    },
    {
      "bufferView": 2,
      "byteOffset": 92520,
      "componentType": 5126,
      "count": 2732,
      "max": [
        1.0,
        1.0,
        1.0
      ],
      "min": [
        -1.0,
        -1.0,
        -1.0
      ],
      "type": "VEC3"
    },
    {
      "bufferView": 1,
      "byteOffset": 19912,
      "componentType": 5126,
      "count": 2732,
      "max": [
        0.9957894086837769,
        0.9982667565345764
      ],
      "min": [
        0.0,
        0.0
      ],
      "type": "VEC2"
    },
    {
      "bufferView": 0,
      "byteOffset": 14304,
      "componentType": 5125,
      "count": 4416,
      "type": "SCALAR"
    },
    {
      "bufferView": 2,
      "byteOffset": 125304,
      "componentType": 5126,
      "count": 246,
      "max": [
        7.844819068908691,
        2.8145911693573,
        10.535255432128906
      ],
      "min": [
        -7.876107215881348,
        -1.0392295122146606,
        -9.213173866271973
      ],
      "type": "VEC3"
    },
    {
      "bufferView": 2,
      "byteOffset": 128256,
      "componentType": 5126,
      "count": 246,
      "max": [
        1.0,
        1.0,
        1.0
      ],
      "min": [
        -1.0,
        -1.0,
        -1.0
      ],
      "type": "VEC3"
    },
    {
      "bufferView": 1,
      "byteOffset": 41768,
      "componentType": 5126,
      "count": 246,
      "max": [
        9.594937324523926,
        4.739726543426514
      ],
      "min": [
        -8.594937324523926,
        -3.7397265434265137
      ],
      "type": "VEC2"
    },
    {
      "bufferView": 0,
      "byteOffset": 31968,
      "componentType": 5125,
      "count": 414,
      "type": "SCALAR"
    },
    {
      "bufferView": 2,
      "byteOffset": 131208,
      "componentType": 5126,
      "count": 1668,
      "max": [
        7.955932140350342,
        3.7457163333892822,
        10.447149276733398
      ],
      "min": [
        -7.967563629150391,
        -1.171373724937439,
        -11.059366226196289
      ],
      "type": "VEC3"
    },
    {
      "bufferView": 2,
      "byteOffset": 151224,
      "componentType": 5126,
      "count": 1668,
      "max": [
        1.0,
        1.0,
        1.0
      ],
      "min": [
        -1.0,
        -1.0,
        -1.0
      ],
      "type": "VEC3"
    },
    {
      "bufferView": 1,
      "byteOffset": 43736,
      "componentType": 5126,
      "count": 1668,
      "max": [
        0.6915865540504456,
        1.901707649230957
      ],
      "min": [
        -0.00747227668762207,
        -0.9203099608421326
      ],
      "type": "VEC2"
    },
    {
      "bufferView": 0,
      "byteOffset": 33624,
      "componentType": 5125,
      "count": 2652,
      "type": "SCALAR"
    },
    {
      "bufferView": 2,
      "byteOffset": 171240,
      "componentType": 5126,
      "count": 94,
      "max": [
        8.020153045654297,
        3.7719647884368896,
        -7.919731616973877
      ],
      "min": [
        -8.035534858703613,
        -1.0127812623977661,
        -9.826632499694824
      ],
      "type": "VEC3"
    },
    {
      "bufferView": 2,
      "byteOffset": 172368,
      "componentType": 5126,
      "count": 94,
      "max": [
        1.0,
        1.0,
        1.0
      ],
      "min": [
        -1.0,
        -1.0,
        -1.0
      ],
      "type": "VEC3"
    },
    {
      "bufferView": 1,
      "byteOffset": 57080,
      "componentType": 5126,
      "count": 94,
      "max": [
        9.868709564208984,
        2.793116807937622
      ],
      "min": [
        -8.868709564208984,
        -1.793116807937622
      ],
      "type": "VEC2"
    },
    {
      "bufferView": 0,
      "byteOffset": 44232,
      "componentType": 5125,
      "count": 174,
      "type": "SCALAR"
    },
    {
      "bufferView": 2,
      "byteOffset": 173496,
      "componentType": 5126,
      "count": 206,
      "max": [
        7.945263385772705,
        3.8037495613098145,
        10.208740234375
      ],
      "min": [
        -7.960646152496338,
        2.5389063358306885,
        -9.751744270324707
      ],
      "type": "VEC3"
    },
    {
      "bufferView": 2,
      "byteOffset": 175968,
      "componentType": 5126,
      "count": 206,
      "max": [
        1.0,
        1.0,
        1.0
      ],
      "min": [
        -1.0,
        -0.7702687382698059,
        -1.0
      ],
      "type": "VEC3"
    },
    {
      "bufferView": 1,
      "byteOffset": 57832,
      "componentType": 5126,
      "count": 206,
      "max": [
        1.2762973308563232,
        1.5939542055130005
      ],
      "min": [
        -0.27629736065864563,
        -0.13699686527252197
      ],
      "type": "VEC2"
    },
    {
      "bufferView": 0,
      "byteOffset": 44928,
      "componentType": 5125,
      "count": 522,
      "type": "SCALAR"
    },
    {
      "bufferView": 2,
      "byteOffset": 178440,
      "componentType": 5126,
      "count": 108,
      "max": [
        14.405169486999512,
        -0.9022377729415894,
        14.897697448730469
      ],
      "min": [
        -14.237077713012695,
        -0.9022401571273804,
        -26.66578483581543
      ],
      "type": "VEC3"
    },
    {
      "bufferView": 2,
      "byteOffset": 179736,
      "componentType": 5126,
      "count": 108,
      "max": [
        6.07954220299689e-08,
        1.0,
        9.556092805951266e-09
      ],
      "min": [
        -2.0562470837148794e-08,
        1.0,
        7.768834464627616e-09
      ],
      "type": "VEC3"
    },
    {
      "bufferView": 1,
      "byteOffset": 59480,
      "componentType": 5126,
      "count": 108,
      "max": [
        2.5931715965270996,
        11.477090835571289
      ],
      "min": [
        -1.5931715965270996,
        -10.477090835571289
      ],
      "type": "VEC2"
    },
    {
      "bufferView": 0,
      "byteOffset": 47016,
      "componentType": 5125,
      "count": 306,
      "type": "SCALAR"
    }
  ],
  "asset": {
    "extras": {
      "author": "novusod (https://sketchfab.com/novusod)",
      "license": "CC-BY-4.0 (http://creativecommons.org/licenses/by/4.0/)",
      "source": "https://sketchfab.com/3d-models/buster-brown-shoe-store-085c60034dc343e7a68714f36866b0a4",
      "title": "Buster Brown Shoe Store"
    },
    "generator": "Sketchfab-14.5.0",
    "version": "2.0"
  },
  "bufferViews": [
    {
      "buffer": 0,
      "byteLength": 48240,
      "name": "floatBufferViews",
      "target": 34963
    },
    {
      "buffer": 0,
      "byteLength": 60344,
      "byteOffset": 48240,
      "byteStride": 8,
      "name": "floatBufferViews",
      "target": 34962
    },
    {
      "buffer": 0,
      "byteLength": 181032,
      "byteOffset": 108584,
      "byteStride": 12,
      "name": "floatBufferViews",
      "target": 34962
    }
  ],
  "buffers": [
    {
      "byteLength": 289616,
      "uri": "scene.bin"
    }
  ],
  "images": [
    {
      "uri": "textures/Material.266_baseColor.png"
    },
    {
      "uri": "textures/Brickee2_baseColor.png"
    },
    {
      "uri": "textures/Brickee_baseColor.png"
    },
    {
      "uri": "textures/Stones_baseColor.png"
    },
    {
      "uri": "textures/Felt_baseColor.png"
    },
    {
      "uri": "textures/Grass_baseColor.png"
    }
  ],
  "materials": [
    {
      "doubleSided": true,
      "name": "Material.266",
      "pbrMetallicRoughness": {
        "baseColorTexture": {
          "index": 0
        },
        "metallicFactor": 0.0,
        "roughnessFactor": 0.5
      }
    },
    {
      "doubleSided": true,
      "name": "Brickee2",
      "pbrMetallicRoughness": {
        "baseColorTexture": {
          "index": 1
        },
        "metallicFactor": 0.0,
        "roughnessFactor": 0.5
      }
    },
    {
      "doubleSided": true,
      "name": "Brickee",
      "pbrMetallicRoughness": {
        "baseColorTexture": {
          "index": 2
        },
        "metallicFactor": 0.0,
        "roughnessFactor": 0.5
      }
    },
    {
      "doubleSided": true,
      "name": "Stones",
      "pbrMetallicRoughness": {
        "baseColorTexture": {
          "index": 3
        },
        "metallicFactor": 0.0,
        "roughnessFactor": 0.5
      }
    },
    {
      "doubleSided": true,
      "name": "Felt",
      "pbrMetallicRoughness": {
        "baseColorTexture": {
          "index": 4
        },
        "metallicFactor": 0.0,
        "roughnessFactor": 0.5
      }
    },
    {
      "doubleSided": true,
      "name": "Grass",
      "pbrMetallicRoughness": {
        "baseColorTexture": {
          "index": 5
        },
        "metallicFactor": 0.0,
        "roughnessFactor": 0.5
      }
    }
  ],
  "meshes": [
    {
      "name": "Object_0",
      "primitives": [
        {
          "attributes": {
            "NORMAL": 1,
            "POSITION": 0,
            "TEXCOORD_0": 2
          },
          "indices": 3,
          "material": 0,
          "mode": 4
        }
      ]
    },
    {
      "name": "Object_1",
      "primitives": [
        {
          "attributes": {
            "NORMAL": 5,
            "POSITION": 4,
            "TEXCOORD_0": 6
          },
          "indices": 7,
          "material": 1,
          "mode": 4
        }
      ]
    },
    {
      "name": "Object_2",
      "primitives": [
        {
          "attributes": {
            "NORMAL": 9,
            "POSITION": 8,
            "TEXCOORD_0": 10
          },
          "indices": 11,
          "material": 0,
          "mode": 4
        }
      ]
    },
    {
      "name": "Object_3",
      "primitives": [
        {
          "attributes": {
            "NORMAL": 13,
            "POSITION": 12,
            "TEXCOORD_0": 14
          },
          "indices": 15,
          "material": 1,
          "mode": 4
        }
      ]
    },
    {
      "name": "Object_4",
      "primitives": [
        {
          "attributes": {
            "NORMAL": 17,
            "POSITION": 16,
            "TEXCOORD_0": 18
          },
          "indices": 19,
          "material": 2,
          "mode": 4
        }
      ]
    },
    {
      "name": "Object_5",
      "primitives": [
        {
          "attributes": {
            "NORMAL": 21,
            "POSITION": 20,
            "TEXCOORD_0": 22
          },
          "indices": 23,
          "material": 3,
          "mode": 4
        }
      ]
    },
    {
      "name": "Object_6",
      "primitives": [
        {
          "attributes": {
            "NORMAL": 25,
            "POSITION": 24,
            "TEXCOORD_0": 26
          },
          "indices": 27,
          "material": 4,
          "mode": 4
        }
      ]
    },
    {
      "name": "Object_7",
      "primitives": [
        {
          "attributes": {
            "NORMAL": 29,
            "POSITION": 28,
            "TEXCOORD_0": 30
          },
          "indices": 31,
          "material": 5,
          "mode": 4
        }
      ]
    }
  ],
  "nodes": [
    {
      "children": [
        1
      ],
      "matrix": [
        1.0,
        0.0,
        0.0,
        0.0,
        0.0,
        2.220446049250313e-16,
        -1.0,
        0.0,
        0.0,
        1.0,
        2.220446049250313e-16,
        0.0,
        0.0,
        0.0,
        0.0,
        1.0
      ],
      "name": "Sketchfab_model"
    },
    {
      "children": [
        2
      ],
      "name": "root"
    },
    {
      "children": [
        3,
        6
      ],
      "matrix": [
        1.0,
        0.0,
        0.0,
        0.0,
        0.0,
        2.220446049250313e-16,
        1.0,
        0.0,
        0.0,
        -1.0,
        2.220446049250313e-16,
        0.0,
        0.0,
        0.0,
        0.0,
        1.0
      ],
      "name": "GLTF_SceneRootNode"
    },
    {
      "children": [
        4,
        5
      ],
      "matrix": [
        1.1406391859054565,
        0.0,
        0.0,
        0.0,
        0.0,
        1.2530314922332764,
        0.0,
        0.0,
        0.0,
        0.0,
        1.2530314922332764,
        0.0,
        -0.13788625597953796,
        4.872267246246338,
        -5.048336505889893,
        1.0
      ],
      "name": "Post_0"
    },
    {
      "mesh": 0,
      "name": "Object_4"
    },
    {
      "mesh": 1,
      "name": "Object_5"
    },
    {
      "children": [
        7,
        8,
        9,
        10,
        11,
        12
      ],
      "matrix": [
        1.0,
        0.0,
        0.0,
        0.0,
        0.0,
        1.0,
        0.0,
        0.0,
        0.0,
        0.0,
        1.0,
        0.0,
        -0.1574496626853943,
        1.226090669631958,
        19.820770263671875,
        1.0
      ],
      "name": "Store_1"
    },
    {
      "mesh": 2,
      "name": "Object_7"
    },
    {
      "mesh": 3,
      "name": "Object_8"
    },
    {
      "mesh": 4,
      "name": "Object_9"
    },
    {
      "mesh": 5,
      "name": "Object_10"
    },
    {
      "mesh": 6,
      "name": "Object_11"
    },
    {
      "mesh": 7,
      "name": "Object_12"
    }
  ],
  "samplers": [
    {
      "magFilter": 9729,
      "minFilter": 9987,
      "wrapS": 10497,
      "wrapT": 10497
    }
  ],
  "scene": 0,
  "scenes": [
    {
      "name": "Sketchfab_Scene",
      "nodes": [
        0
      ]
    }
  ],
  "textures": [
    {
      "sampler": 0,
      "source": 0
    },
    {
      "sampler": 0,
      "source": 1
    },
    {
      "sampler": 0,
      "source": 2
    },
    {
      "sampler": 0,
      "source": 3
    },
    {
      "sampler": 0,
      "source": 4
    },
    {
      "sampler": 0,
      "source": 5
    }
  ]
}
