{
  "accessors": [
    {
      "bufferView": 2,
      "componentType": 5126,
      "count": 1707,
      "max": [
        4.058352470397949,
        2.8917860984802246,
        1.5555169582366943
      ],
      "min": [
        3.69232439994812,
        2.861786127090454,
        1.4541759490966797
      ],
      "type": "VEC3"
    },
    {
      "bufferView": 2,
      "byteOffset": 20484,
      "componentType": 5126,
      "count": 1707,
      "max": [
        1.0,
        1.0,
        1.0
      ],
      "min": [
        -1.0,
        -1.0,
        -1.0
      ],
      "type": "VEC3"
    },
    {
      "bufferView": 1,
      "componentType": 5126,
      "count": 1707,
      "max": [
        14.576482772827148,
        3.9898030757904053
      ],
      "min": [
        -14.576482772827148,
        0.0
      ],
      "type": "VEC2"
    },
    {
      "bufferView": 0,
      "componentType": 5125,
      "count": 3324,
      "type": "SCALAR"
    },
    {
      "bufferView": 2,
      "byteOffset": 40968,
      "componentType": 5126,
      "count": 975,
      "max": [
        5.387370586395264,
        2.2217862606048584,
        3.9183783531188965
      ],
      "min": [
        4.611348628997803,
        2.191786289215088,
        3.6741254329681396
      ],
      "type": "VEC3"
    },
    {
      "bufferView": 2,
      "byteOffset": 52668,
      "componentType": 5126,
      "count": 975,
      "max": [
        1.0,
        1.0,
        1.0
      ],
      "min": [
        -1.0,
        -1.0,
        -1.0
      ],
      "type": "VEC3"
    },
    {
      "bufferView": 1,
      "byteOffset": 13656,
      "componentType": 5126,
      "count": 975,
      "max": [
        31.50109100341797,
        9.616254806518555
      ],
      "min": [
        -31.50109100341797,
        0.0
      ],
      "type": "VEC2"
    },
    {
      "bufferView": 0,
      "byteOffset": 13296,
      "componentType": 5125,
      "count": 1872,
      "type": "SCALAR"
    },
    {
      "bufferView": 2,
      "byteOffset": 64368,
      "componentType": 5126,
      "count": 54,
      "max": [
        7.495020866394043,
        9.311786651611328,
        5.349999904632568
      ],
      "min": [
        2.495020866394043,
        2.31178617477417,
        0.0
      ],
      "type": "VEC3"
    },
    {
      "bufferView": 2,
      "byteOffset": 65016,
      "componentType": 5126,
      "count": 54,
      "max": [
        1.0,
        1.0,
        0.0
      ],
      "min": [
        -1.0,
        -1.0,
        0.0
      ],
      "type": "VEC3"
    },
    {
      "bufferView": 1,
      "byteOffset": 21456,
      "componentType": 5126,
      "count": 54,
      "max": [
        6.320788860321045,
        5.692700386047363
      ],
      "min": [
        -6.320788860321045,
        0.0
      ],
      "type": "VEC2"
    },
    {
      "bufferView": 0,
      "byteOffset": 20784,
      "componentType": 5125,
      "count": 114,
      "type": "SCALAR"
    },
    {
      "bufferView": 2,
      "byteOffset": 65664,
      "componentType": 5126,
      "count": 493,
      "max": [
        7.595020771026611,
        9.411786079406738,
        5.5
      ],
      "min": [
        2.3950209617614746,
        0.8117862343788147,
        0.0
      ],
      "type": "VEC3"
    },
    {
      "bufferView": 2,
      "byteOffset": 71580,
      "componentType": 5126,
      "count": 493,
      "max": [
        1.0,
        1.0,
        1.0
      ],
      "min": [
        -1.0,
        -1.0,
        -1.0
      ],
      "type": "VEC3"
    },
    {
      "bufferView": 1,
      "byteOffset": 21888,
      "componentType": 5126,
      "count": 493,
      "max": [
        20.585708618164063,
        13.723806381225586
      ],
      "min": [
        -20.585708618164063,
        0.0
      ],
      "type": "VEC2"
    },
    {
      "bufferView": 0,
      "byteOffset": 21240,
      "componentType": 5125,
      "count": 1140,
      "type": "SCALAR"
    },
    {
      "bufferView": 2,
      "byteOffset": 77496,
      "componentType": 5126,
      "count": 96,
      "max": [
        7.495020866394043,
        9.311786651611328,
        5.389999866485596
      ],
      "min": [
        2.4150209426879883,
        2.2617862224578857,
        0.0
      ],
      "type": "VEC3"
    },
    {
      "bufferView": 2,
      "byteOffset": 78648,
      "componentType": 5126,
      "count": 96,
      "max": [
        1.0,
        1.0,
        1.0
      ],
      "min": [
        -1.0,
        -1.0,
        0.0
      ],
      "type": "VEC3"
    },
    {
      "bufferView": 1,
      "byteOffset": 25832,
      "componentType": 5126,
      "count": 96,
      "max": [
        366.6057434082031,
        362.66876220703125
      ],
      "min": [
        -366.6057434082031,
        0.0
      ],
      "type": "VEC2"
    },
    {
      "bufferView": 0,
      "byteOffset": 25800,
      "componentType": 5125,
      "count": 192,
      "type": "SCALAR"
    },
    {
      "bufferView": 2,
      "byteOffset": 79800,
      "componentType": 5126,
      "count": 4,
      "max": [
        7.495020866394043,
        9.311786651611328,
        5.389999866485596
      ],
      "min": [
        2.495020866394043,
        2.31178617477417,
        5.389999866485596
      ],
      "type": "VEC3"
    },
    {
      "bufferView": 2,
      "byteOffset": 79848,
      "componentType": 5126,
      "count": 4,
      "max": [
        0.0,
        0.0,
        1.0
      ],
      "min": [
        0.0,
        0.0,
        1.0
      ],
      "type": "VEC3"
    },
    {
      "bufferView": 1,
      "byteOffset": 26600,
      "componentType": 5126,
      "count": 4,
      "max": [
        29.507957458496094,
        36.66057586669922
      ],
      "min": [
        9.822916984558105,
        9.101520538330078
      ],
      "type": "VEC2"
    },
    {
      "bufferView": 0,
      "byteOffset": 26568,
      "componentType": 5125,
      "count": 6,
      "type": "SCALAR"
    },
    {
      "bufferView": 2,
      "byteOffset": 79896,
      "componentType": 5126,
      "count": 27,
      "max": [
        7.495020866394043,
        2.31178617477417,
        0.029999999329447746
      ],
      "min": [
        2.4150209426879883,
        0.8117862343788147,
        0.0
      ],
      "type": "VEC3"
    },
    {
      "bufferView": 2,
      "byteOffset": 80220,
      "componentType": 5126,
      "count": 27,
      "max": [
        1.0,
        0.0,
        1.0
      ],
      "min": [
        -1.0,
        -1.0,
        -0.0
      ],
      "type": "VEC3"
    },
    {
      "bufferView": 1,
      "byteOffset": 26632,
      "componentType": 5126,
      "count": 27,
      "max": [
        19.67197036743164,
        6.067680358886719
      ],
      "min": [
        -6.067680358886719,
        0.0
      ],
      "type": "VEC2"
    },
    {
      "bufferView": 0,
      "byteOffset": 26592,
      "componentType": 5125,
      "count": 57,
      "type": "SCALAR"
    },
    {
      "bufferView": 2,
      "byteOffset": 80544,
      "componentType": 5126,
      "count": 12,
      "max": [
        7.395020961761475,
        2.8417861461639404,
        1.899999976158142
      ],
      "min": [
        3.5950210094451904,
        2.4117863178253174,
        0.800000011920929
      ],
      "type": "VEC3"
    },
    {
      "bufferView": 2,
      "byteOffset": 80688,
      "componentType": 5126,
      "count": 12,
      "max": [
        -0.0,
        -1.0,
        0.0
      ],
      "min": [
        -0.0,
        -1.0,
        0.0
      ],
      "type": "VEC3"
    },
    {
      "bufferView": 1,
      "byteOffset": 26848,
      "componentType": 5126,
      "count": 12,
      "max": [
        291.1425476074219,
        74.80314636230469
      ],
      "min": [
        141.5362548828125,
        31.496063232421875
      ],
      "type": "VEC2"
    },
    {
      "bufferView": 0,
      "byteOffset": 26820,
      "componentType": 5125,
      "count": 18,
      "type": "SCALAR"
    },
    {
      "bufferView": 2,
      "byteOffset": 80832,
      "componentType": 5126,
      "count": 48,
      "max": [
        7.395020961761475,
        2.8917860984802246,
        1.899999976158142
      ],
      "min": [
        3.5950210094451904,
        2.4117863178253174,
        0.800000011920929
      ],
      "type": "VEC3"
    },
    {
      "bufferView": 2,
      "byteOffset": 81408,
      "componentType": 5126,
      "count": 48,
      "max": [
        1.0,
        0.0,
        1.0
      ],
      "min": [
        -1.0,
        -1.0,
        -1.0
      ],
      "type": "VEC3"
    },
    {
      "bufferView": 1,
      "byteOffset": 26944,
      "componentType": 5126,
      "count": 48,
      "max": [
        29.114255905151367,
        11.384984970092773
      ],
      "min": [
        -29.114255905151367,
        3.149606227874756
      ],
      "type": "VEC2"
    },
    {
      "bufferView": 0,
      "byteOffset": 26892,
      "componentType": 5125,
      "count": 90,
      "type": "SCALAR"
    },
    {
      "bufferView": 2,
      "byteOffset": 81984,
      "componentType": 5126,
      "count": 72,
      "max": [
        4.995020866394043,
        2.8417861461639404,
        2.0
      ],
      "min": [
        3.495020866394043,
        2.81178617477417,
        0.30000001192092896
      ],
      "type": "VEC3"
    },
    {
      "bufferView": 2,
      "byteOffset": 82848,
      "componentType": 5126,
      "count": 72,
      "max": [
        1.0,
        0.0,
        1.0
      ],
      "min": [
        -1.0,
        -1.0,
        -1.0
      ],
      "type": "VEC3"
    },
    {
      "bufferView": 1,
      "byteOffset": 27328,
      "componentType": 5126,
      "count": 72,
      "max": [
        9.990041732788086,
        11.563130378723145
      ],
      "min": [
        -9.79004192352295,
        1.2206896543502808
      ],
      "type": "VEC2"
    },
    {
      "bufferView": 0,
      "byteOffset": 27252,
      "componentType": 5125,
      "count": 168,
      "type": "SCALAR"
    },
    {
      "bufferView": 2,
      "byteOffset": 83712,
      "componentType": 5126,
      "count": 4,
      "max": [
        5.899576663970947,
        2.611786127090454,
        1.4909324645996094
      ],
      "min": [
        5.549576759338379,
        2.611786127090454,
        0.9909324645996094
      ],
      "type": "VEC3"
    },
    {
      "bufferView": 2,
      "byteOffset": 83760,
      "componentType": 5126,
      "count": 4,
      "max": [
        -0.0,
        -1.0,
        0.0
      ],
      "min": [
        -0.0,
        -1.0,
        0.0
      ],
      "type": "VEC3"
    },
    {
      "bufferView": 1,
      "byteOffset": 27904,
      "componentType": 5126,
      "count": 4,
      "max": [
        14.935636520385742,
        2.935732126235962
      ],
      "min": [
        14.049560546875,
        1.9512032270431519
      ],
      "type": "VEC2"
    },
    {
      "bufferView": 0,
      "byteOffset": 27924,
      "componentType": 5125,
      "count": 6,
      "type": "SCALAR"
    },
    {
      "bufferView": 2,
      "byteOffset": 83808,
      "componentType": 5126,
      "count": 458,
      "max": [
        6.462035179138184,
        2.2217862606048584,
        3.9592339992523193
      ],
      "min": [
        5.84891414642334,
        2.191786289215088,
        3.578579902648926
      ],
      "type": "VEC3"
    },
    {
      "bufferView": 2,
      "byteOffset": 89304,
      "componentType": 5126,
      "count": 458,
      "max": [
        1.0,
        1.0,
        0.9998741745948792
      ],
      "min": [
        -1.0,
        -1.0,
        -0.9945051074028015
      ],
      "type": "VEC3"
    },
    {
      "bufferView": 1,
      "byteOffset": 27936,
      "componentType": 5126,
      "count": 458,
      "max": [
        10.709868431091309,
        10.961273193359375
      ],
      "min": [
        -10.961273193359375,
        0.0
      ],
      "type": "VEC2"
    },
    {
      "bufferView": 0,
      "byteOffset": 27948,
      "componentType": 5125,
      "count": 888,
      "type": "SCALAR"
    },
    {
      "bufferView": 2,
      "byteOffset": 94800,
      "componentType": 5126,
      "count": 236,
      "max": [
        4.865020751953125,
        2.7917861938476563,
        5.349999904632568
      ],
      "min": [
        2.414961099624634,
        2.2317261695861816,
        7.941025360067369e-15
      ],
      "type": "VEC3"
    },
    {
      "bufferView": 2,
      "byteOffset": 97632,
      "componentType": 5126,
      "count": 236,
      "max": [
        0.9914452433586121,
        1.0,
        0.9914435148239136
      ],
      "min": [
        -0.991475522518158,
        -0.9914452433586121,
        -0.9914455413818359
      ],
      "type": "VEC3"
    },
    {
      "bufferView": 1,
      "byteOffset": 31600,
      "componentType": 5126,
      "count": 236,
      "max": [
        16.3414249420166,
        26.3287410736084
      ],
      "min": [
        -16.3414249420166,
        -3.552713678800501e-15
      ],
      "type": "VEC2"
    },
    {
      "bufferView": 0,
      "byteOffset": 31500,
      "componentType": 5125,
      "count": 438,
      "type": "SCALAR"
    }
  ],
  "asset": {
    "extras": {
      "author": "robinvlasveld (https://sketchfab.com/robinvlasveld)",
      "license": "CC-BY-4.0 (http://creativecommons.org/licenses/by/4.0/)",
      "source": "https://sketchfab.com/3d-models/music-store-4f78c8406e8b431998711f247f37f86b",
      "title": "Music Store"
    },
    "generator": "Sketchfab-12.68.0",
    "version": "2.0"
  },
  "bufferViews": [
    {
      "buffer": 0,
      "byteLength": 33252,
      "name": "floatBufferViews",
      "target": 34963
    },
    {
      "buffer": 0,
      "byteLength": 33488,
      "byteOffset": 33252,
      "byteStride": 8,
      "name": "floatBufferViews",
      "target": 34962
    },
    {
      "buffer": 0,
      "byteLength": 100464,
      "byteOffset": 66740,
      "byteStride": 12,
      "name": "floatBufferViews",
      "target": 34962
    }
  ],
  "buffers": [
    {
      "byteLength": 167204,
      "uri": "scene.bin"
    }
  ],
  "images": [
    {
      "uri": "textures/Brick_An_baseColor.jpeg"
    },
    {
      "uri": "textures/Cladding_baseColor.jpeg"
    },
    {
      "uri": "textures/Metal_Ro_baseColor.jpeg"
    },
    {
      "uri": "textures/Stone_Gr_baseColor.jpeg"
    },
    {
      "uri": "textures/Tile_Tra_baseColor.jpeg"
    },
    {
      "uri": "textures/Wood_Boa_baseColor.jpeg"
    },
    {
      "uri": "textures/material_baseColor.jpeg"
    },
    {
      "uri": "textures/material_10_baseColor.jpeg"
    }
  ],
  "materials": [
    {
      "doubleSided": true,
      "name": "0136_Cha",
      "pbrMetallicRoughness": {
        "baseColorFactor": [
          0.137255,
          0.137255,
          0.137255,
          1.0
        ],
        "metallicFactor": 0.0,
        "roughnessFactor": 0.6
      }
    },
    {
      "doubleSided": true,
      "name": "Brick_An",
      "pbrMetallicRoughness": {
        "baseColorTexture": {
          "index": 0
        },
        "metallicFactor": 0.0,
        "roughnessFactor": 0.6
      }
    },
    {
      "doubleSided": true,
      "name": "Cladding",
      "pbrMetallicRoughness": {
        "baseColorTexture": {
          "index": 1
        },
        "metallicFactor": 0.0,
        "roughnessFactor": 0.6
      }
    },
    {
      "doubleSided": true,
      "name": "FrontCol",
      "pbrMetallicRoughness": {
        "baseColorFactor": [
          0.0,
          1.0,
          0.333333,
          1.0
        ],
        "metallicFactor": 0.0,
        "roughnessFactor": 0.6
      }
    },
    {
      "doubleSided": true,
      "name": "Metal_Ro",
      "pbrMetallicRoughness": {
        "baseColorTexture": {
          "index": 2
        },
        "metallicFactor": 0.0,
        "roughnessFactor": 0.6
      }
    },
    {
      "doubleSided": true,
      "name": "Stone_Gr",
      "pbrMetallicRoughness": {
        "baseColorTexture": {
          "index": 3
        },
        "metallicFactor": 0.0,
        "roughnessFactor": 0.6
      }
    },
    {
      "doubleSided": true,
      "name": "Tile_Tra",
      "pbrMetallicRoughness": {
        "baseColorTexture": {
          "index": 4
        },
        "metallicFactor": 0.0,
        "roughnessFactor": 0.6
      }
    },
    {
      "alphaMode": "BLEND",
      "doubleSided": true,
      "name": "Transluc",
      "pbrMetallicRoughness": {
        "baseColorFactor": [
          0.501961,
          0.501961,
          0.501961,
          0.5
        ],
        "metallicFactor": 0.0,
        "roughnessFactor": 0.6
      }
    },
    {
      "doubleSided": true,
      "name": "Wood_Boa",
      "pbrMetallicRoughness": {
        "baseColorTexture": {
          "index": 5
        },
        "metallicFactor": 0.0,
        "roughnessFactor": 0.6
      }
    },
    {
      "doubleSided": true,
      "name": "material",
      "pbrMetallicRoughness": {
        "baseColorTexture": {
          "index": 6
        },
        "metallicFactor": 0.0,
        "roughnessFactor": 0.6
      }
    },
    {
      "doubleSided": true,
      "name": "material_10",
      "pbrMetallicRoughness": {
        "baseColorTexture": {
          "index": 7
        },
        "metallicFactor": 0.0,
        "roughnessFactor": 0.6
      }
    }
  ],
  "meshes": [
    {
      "name": "Object_0",
      "primitives": [
        {
          "attributes": {
            "NORMAL": 1,
            "POSITION": 0,
            "TEXCOORD_0": 2
          },
          "indices": 3,
          "material": 0,
          "mode": 4
        }
      ]
    },
    {
      "name": "Object_1",
      "primitives": [
        {
          "attributes": {
            "NORMAL": 5,
            "POSITION": 4,
            "TEXCOORD_0": 6
          },
          "indices": 7,
          "material": 0,
          "mode": 4
        }
      ]
    },
    {
      "name": "Object_2",
      "primitives": [
        {
          "attributes": {
            "NORMAL": 9,
            "POSITION": 8,
            "TEXCOORD_0": 10
          },
          "indices": 11,
          "material": 1,
          "mode": 4
        }
      ]
    },
    {
      "name": "Object_3",
      "primitives": [
        {
          "attributes": {
            "NORMAL": 13,
            "POSITION": 12,
            "TEXCOORD_0": 14
          },
          "indices": 15,
          "material": 2,
          "mode": 4
        }
      ]
    },
    {
      "name": "Object_4",
      "primitives": [
        {
          "attributes": {
            "NORMAL": 17,
            "POSITION": 16,
            "TEXCOORD_0": 18
          },
          "indices": 19,
          "material": 3,
          "mode": 4
        }
      ]
    },
    {
      "name": "Object_5",
      "primitives": [
        {
          "attributes": {
            "NORMAL": 21,
            "POSITION": 20,
            "TEXCOORD_0": 22
          },
          "indices": 23,
          "material": 5,
          "mode": 4
        }
      ]
    },
    {
      "name": "Object_6",
      "primitives": [
        {
          "attributes": {
            "NORMAL": 25,
            "POSITION": 24,
            "TEXCOORD_0": 26
          },
          "indices": 27,
          "material": 6,
          "mode": 4
        }
      ]
    },
    {
      "name": "Object_7",
      "primitives": [
        {
          "attributes": {
            "NORMAL": 29,
            "POSITION": 28,
            "TEXCOORD_0": 30
          },
          "indices": 31,
          "material": 7,
          "mode": 4
        }
      ]
    },
    {
      "name": "Object_8",
      "primitives": [
        {
          "attributes": {
            "NORMAL": 33,
            "POSITION": 32,
            "TEXCOORD_0": 34
          },
          "indices": 35,
          "material": 8,
          "mode": 4
        }
      ]
    },
    {
      "name": "Object_9",
      "primitives": [
        {
          "attributes": {
            "NORMAL": 37,
            "POSITION": 36,
            "TEXCOORD_0": 38
          },
          "indices": 39,
          "material": 9,
          "mode": 4
        }
      ]
    },
    {
      "name": "Object_10",
      "primitives": [
        {
          "attributes": {
            "NORMAL": 41,
            "POSITION": 40,
            "TEXCOORD_0": 42
          },
          "indices": 43,
          "material": 10,
          "mode": 4
        }
      ]
    },
    {
      "name": "Object_11",
      "primitives": [
        {
          "attributes": {
            "NORMAL": 45,
            "POSITION": 44,
            "TEXCOORD_0": 46
          },
          "indices": 47,
          "material": 0,
          "mode": 4
        }
      ]
    },
    {
      "name": "Object_12",
      "primitives": [
        {
          "attributes": {
            "NORMAL": 49,
            "POSITION": 48,
            "TEXCOORD_0": 50
          },
          "indices": 51,
          "material": 4,
          "mode": 4
        }
      ]
    }
  ],
  "nodes": [
    {
      "children": [
        1
      ],
      "matrix": [
        1.0,
        0.0,
        0.0,
        0.0,
        0.0,
        2.220446049250313e-16,
        -1.0,
        0.0,
        0.0,
        1.0,
        2.220446049250313e-16,
        0.0,
        0.0,
        0.0,
        0.0,
        1.0
      ],
      "name": "Sketchfab_model"
    },
    {
      "children": [
        2
      ],
      "name": "Music Store.3ds"
    },
    {
      "children": [
        7,
        8,
        9,
        10,
        11,
        12,
        13,
        14,
        15,
        16,
        17,
        3,
        5
      ],
      "name": "Model"
    },
    {
      "children": [
        4
      ],
      "name": "Closed1"
    },
    {
      "mesh": 0,
      "name": "Object_4"
    },
    {
      "children": [
        6
      ],
      "name": "Music1"
    },
    {
      "mesh": 1,
      "name": "Object_6"
    },
    {
      "mesh": 2,
      "name": "Object_7"
    },
    {
      "mesh": 3,
      "name": "Object_8"
    },
    {
      "mesh": 4,
      "name": "Object_9"
    },
    {
      "mesh": 5,
      "name": "Object_10"
    },
    {
      "mesh": 6,
      "name": "Object_11"
    },
    {
      "mesh": 7,
      "name": "Object_12"
    },
    {
      "mesh": 8,
      "name": "Object_13"
    },
    {
      "mesh": 9,
      "name": "Object_14"
    },
    {
      "mesh": 10,
      "name": "Object_15"
    },
    {
      "mesh": 11,
      "name": "Object_16"
    },
    {
      "mesh": 12,
      "name": "Object_17"
    }
  ],
  "samplers": [
    {
      "magFilter": 9729,
      "minFilter": 9987,
      "wrapS": 10497,
      "wrapT": 10497
    }
  ],
  "scene": 0,
  "scenes": [
    {
      "name": "Sketchfab_Scene",
      "nodes": [
        0
      ]
    }
  ],
  "textures": [
    {
      "sampler": 0,
      "source": 0
    },
    {
      "sampler": 0,
      "source": 1
    },
    {
      "sampler": 0,
      "source": 2
    },
    {
      "sampler": 0,
      "source": 3
    },
    {
      "sampler": 0,
      "source": 4
    },
    {
      "sampler": 0,
      "source": 5
    },
    {
      "sampler": 0,
      "source": 6
    },
    {
      "sampler": 0,
      "source": 7
    }
  ]
}
